<?xml version="1.0" encoding="utf-8"?>
<!DOCTYPE svg PUBLIC "-//W3C//DTD SVG 1.1//EN" "http://www.w3.org/Graphics/SVG/1.1/DTD/svg11.dtd">
<svg version="1.1" xmlns="http://www.w3.org/2000/svg" xmlns:xlink="http://www.w3.org/1999/xlink" fill="#e6b450" x="0px" y="0px" viewBox="0 0 1000 1000" enable-background="new 0 0 1000 1000" xml:space="preserve">
<g><path d="M960.5,665.5c-243.9,38.9-394.2-275.6-521.6-371.9C503.3,469,649.2,722.8,941,673.1c-76.2,27.3-256.4,114.2-414-11.6C276,446.4,404.1,229.9,167.7,40.1c141,30.3,350.5,37.3,524.9,429.8C743.8,601.8,884.7,659,960.5,665.5z"/><path d="M990,639.2c-148.7,208.3-463.9,94.6-618.6,120.1C533.3,837,805.1,910.5,981,659C944.5,734.9,873,930.5,677.3,957.1C355.8,989,304.4,739.4,10,778.6c120.9-82.7,275.2-232.7,659.2-81.1C792.9,754,931.4,690.6,990,639.2z"/></g>
</svg>
