<?xml version="1.0" standalone="no"?>
<!DOCTYPE svg PUBLIC "-//W3C//DTD SVG 20010904//EN"
 "http://www.w3.org/TR/2001/REC-SVG-20010904/DTD/svg10.dtd">
<svg version="1.0" xmlns="http://www.w3.org/2000/svg"
 width="700.000000pt" height="700.000000pt" viewBox="0 0 700.000000 700.000000"
 preserveAspectRatio="xMidYMid meet">
<g transform="translate(0.000000,700.000000) scale(0.100000,-0.100000)"
fill="#000000" stroke="none">
<path d="M1186 6711 c5 -4 50 -43 99 -86 234 -203 430 -429 585 -673 201 -319
340 -667 501 -1262 215 -793 362 -1156 631 -1558 38 -57 75 -111 83 -120 7 -9
42 -53 76 -97 34 -44 71 -89 80 -100 91 -102 159 -174 244 -258 55 -54 91 -96
80 -93 -42 11 -335 63 -400 70 -27 3 -59 7 -70 10 -11 2 -63 7 -115 11 -52 4
-111 9 -130 11 -45 4 -444 4 -490 0 -19 -2 -66 -7 -105 -11 -38 -3 -81 -8 -95
-10 -544 -72 -1010 -256 -1530 -604 -124 -83 -424 -293 -455 -318 -5 -4 -29
-21 -52 -37 -24 -16 -43 -31 -43 -33 0 -2 15 -2 33 1 73 13 222 21 387 21 222
0 344 -11 510 -46 52 -11 108 -22 124 -25 16 -2 37 -9 47 -15 11 -5 19 -8 19
-5 0 7 244 -77 345 -119 132 -54 359 -170 535 -272 85 -50 263 -153 395 -230
487 -283 812 -424 1162 -503 256 -57 409 -74 703 -74 365 -1 521 19 775 101
234 75 490 219 695 391 376 316 668 748 990 1467 12 28 31 68 42 90 24 48 17
41 -47 -45 -125 -168 -328 -386 -465 -501 -36 -29 -67 -56 -70 -60 -11 -13
-210 -150 -273 -188 -208 -126 -563 -270 -734 -297 -21 -3 -41 -8 -44 -9 -13
-9 -247 -45 -332 -52 -171 -15 -537 -8 -677 11 -14 2 -48 7 -75 10 -390 51
-947 216 -1343 398 -37 16 -92 42 -122 56 l-55 25 40 7 c102 19 437 27 635 16
198 -12 299 -18 330 -21 19 -2 76 -6 125 -10 50 -3 113 -8 140 -10 28 -2 97
-7 155 -10 58 -4 125 -9 150 -11 250 -17 600 -21 835 -10 149 7 178 9 285 22
30 3 69 8 85 9 40 5 85 12 175 30 41 9 84 17 95 19 285 56 670 230 875 395 93
75 107 88 195 176 92 92 216 242 178 215 -11 -8 -62 -45 -113 -82 -104 -76
-112 -78 -232 -52 -40 8 -84 18 -98 20 -117 22 -351 109 -520 193 -396 197
-693 452 -910 781 -72 110 -113 190 -200 390 -79 181 -270 559 -380 749 -375
654 -781 1133 -1259 1489 -263 197 -614 376 -946 484 -89 28 -357 103 -405
112 -14 3 -68 14 -120 26 -52 11 -151 31 -220 45 -144 27 -277 54 -304 60 -10
2 -15 0 -10 -4z m1970 -1833 c32 -28 120 -112 194 -188 155 -156 190 -194 335
-365 28 -32 55 -63 60 -69 6 -6 55 -65 110 -131 55 -66 110 -131 121 -145 12
-14 54 -63 94 -110 207 -243 266 -310 415 -468 280 -299 547 -534 795 -699 95
-63 230 -142 295 -172 146 -69 177 -82 260 -109 257 -86 480 -115 749 -97 69
4 77 3 56 -8 -14 -6 -32 -16 -40 -22 -8 -5 -21 -10 -29 -12 -8 -1 -17 -6 -20
-11 -15 -23 -254 -130 -411 -184 -154 -52 -430 -115 -430 -98 0 4 28 13 63 20
122 26 733 236 762 262 9 9 -34 6 -115 -8 -179 -30 -671 -17 -800 21 -8 2 -31
7 -50 10 -247 41 -571 170 -828 329 -80 50 -287 197 -302 215 -3 3 -39 35 -80
71 -433 375 -819 938 -1138 1660 -36 81 -142 348 -142 357 0 11 25 -4 76 -49z
m2541 -2894 c-3 -3 -12 -4 -19 -1 -8 3 -5 6 6 6 11 1 17 -2 13 -5z"/>
</g>
</svg>
